<svg xmlns="http://www.w3.org/2000/svg" version="1.1" xmlns:xlink="http://www.w3.org/1999/xlink" xmlns:svgjs="http://svgjs.dev/svgjs" width="1500" height="1500" viewBox="0 0 1500 1500"><rect width="1500" height="1500" fill="red"></rect><g transform="matrix(0.6666666666666666,0,0,0.6666666666666666,249.39441222794431,396.2909306285197)"><svg viewBox="0 0 396 280" data-background-color="#b71a1a" preserveAspectRatio="xMidYMid meet" height="1060" width="1500" xmlns="http://www.w3.org/2000/svg" xmlns:xlink="http://www.w3.org/1999/xlink"><g id="tight-bounds" transform="matrix(1,0,0,1,0.2398127577340574,0.1488765434167476)"><svg viewBox="0 0 395.52 279.7022469131665" height="279.7022469131665" width="395.52"><g><svg viewBox="0 0 395.52 279.7022469131665" height="279.7022469131665" width="395.52"><g transform="matrix(1,0,0,1,0,129.6999866407921)"><svg viewBox="0 0 395.52 150.0022602723744" height="150.0022602723744" width="395.52"><g id="textblocktransform"><svg viewBox="0 0 395.52 150.0022602723744" height="150.0022602723744" width="395.52" id="textblock"><g><svg viewBox="0 0 395.52 150.0022602723744" height="150.0022602723744" width="395.52"><g transform="matrix(1,0,0,1,0,0)"><svg width="395.52" viewBox="1.5187605425840296 -15.354636579094402 116.79153045608987 44.29340259004378" height="150.0022602723744" data-palette-color="#b71a1a"><path d="M23.111-5.105c-0.43-0.228-0.788-0.555-1.076-0.979-0.279-0.427-0.38-0.897-0.305-1.408v0c0.132-0.987 0.115-1.751-0.05-2.292-0.165-0.541-0.492-0.941-0.981-1.201v0c-0.306-0.163-0.714-0.085-1.223 0.233-0.503 0.321-1.078 0.941-1.724 1.858v0c-1.285 1.906-2.214 3.398-2.787 4.476v0c0.412 0.332 1.033 0.719 1.864 1.16v0c0.424 0.225 0.99 0.488 1.698 0.79v0l1.259 0.613c0.553 0.294 0.927 0.629 1.121 1.003 0.193 0.375 0.159 0.809-0.105 1.304v0c-0.372 0.7-0.896 1.166-1.569 1.397-0.671 0.24-1.298 0.205-1.881-0.105v0c-2.207-1.174-3.75-1.858-4.628-2.053v0c-0.976 1.837-2.286 4.519-3.927 8.048v0c-0.279 0.524-0.648 1.29-1.109 2.298v0l-1.697 3.64c-0.408 0.923-0.82 1.5-1.238 1.731-0.417 0.231-0.994 0.151-1.73-0.24v0c-1.348-0.717-1.79-1.994-1.326-3.831v0c0.372-1.297 1.065-3.062 2.078-5.294 1.007-2.235 1.951-4.18 2.83-5.834v0c0.457-0.859 1.033-1.829 1.728-2.91v0c-0.043-0.061-0.203-0.165-0.48-0.311v0c-0.277-0.147-0.485-0.239-0.624-0.275v0c-0.95-0.429-1.639-0.758-2.069-0.987v0c-0.277-0.147-0.448-0.491-0.515-1.033-0.058-0.544 0.052-1.078 0.331-1.602v0c0.163-0.306 0.419-0.532 0.768-0.679 0.35-0.146 0.71-0.2 1.082-0.161v0c0.596 0 1.321 0.227 2.175 0.681v0l1.378 0.732c2.278-4.285 4.343-7.019 6.195-8.201v0c1.763-1.101 3.702-1.09 5.815 0.033v0c0.983 0.523 1.82 1.221 2.511 2.094 0.694 0.882 1.135 1.827 1.324 2.834 0.193 1.001 0.053 1.946-0.419 2.834v0c-0.507 0.954-0.966 1.525-1.376 1.715-0.419 0.192-0.859 0.166-1.318-0.078zM41.25 11.175c0.127 0.547 0.141 1.286 0.041 2.217-0.1 0.931-0.256 1.744-0.466 2.439v0c-0.392 1.295-1.233 3.054-2.524 5.276v0c-3.556 3.494-7.578 4.563-12.064 3.206v0c-1.659-0.502-3.184-1.561-4.576-3.18-1.398-1.62-2.212-3.246-2.444-4.875v0c-0.038-3.125 0.059-5.07 0.291-5.836v0c0.401-1.327 1.118-2.65 2.15-3.967 1.034-1.324 2.166-2.396 3.396-3.215v0c0.793-0.596 2.003-0.948 3.63-1.055 1.634-0.105 3.047 0.023 4.241 0.383v0c2.323 0.702 4.165 1.739 5.526 3.112 1.361 1.373 2.294 3.204 2.799 5.495zM34.489 17.886c0.297-0.384 0.717-1.472 1.259-3.265v0c0.291-0.964 0.404-1.96 0.34-2.99-0.069-1.038-0.336-1.989-0.799-2.853v0c-0.049-0.091-0.198-0.255-0.447-0.491-0.256-0.237-0.619-0.511-1.089-0.82-0.473-0.303-1.041-0.555-1.705-0.755v0c-1.857-0.561-3.442-0.226-4.755 1.007-1.319 1.231-2.265 2.794-2.838 4.689v0c-0.1 0.332-0.199 0.992-0.295 1.98-0.101 0.979-0.12 1.607-0.058 1.884v0c0.033 0.261 0.194 0.661 0.483 1.201 0.289 0.54 0.692 1.062 1.209 1.566 0.524 0.5 1.119 0.85 1.782 1.051v0c1.493 0.451 2.795 0.455 3.904 0.01 1.114-0.436 2.117-1.174 3.009-2.214zM66.65 12.569c0.254 0.501 0.444 1.215 0.57 2.143 0.125 0.928 0.169 1.754 0.131 2.48v0c-0.07 1.352-0.466 3.26-1.188 5.726v0c-2.617 4.243-6.265 6.244-10.945 6.001v0c-1.731-0.09-3.466-0.754-5.204-1.992-1.745-1.239-2.925-2.622-3.54-4.149v0c-0.784-3.025-1.156-4.936-1.115-5.736v0c0.072-1.385 0.451-2.84 1.138-4.366 0.687-1.533 1.529-2.845 2.527-3.935v0c0.627-0.769 1.718-1.4 3.273-1.893 1.561-0.493 2.964-0.707 4.209-0.643v0c2.423 0.126 4.46 0.692 6.11 1.699 1.65 1.007 2.995 2.562 4.034 4.665zM61.692 20.703c0.197-0.444 0.343-1.601 0.44-3.471v0c0.052-1.005-0.076-2-0.386-2.984-0.316-0.991-0.802-1.851-1.458-2.579v0c-0.069-0.077-0.253-0.2-0.552-0.37-0.305-0.169-0.723-0.348-1.254-0.535-0.531-0.181-1.143-0.29-1.835-0.326v0c-1.937-0.1-3.396 0.605-4.376 2.116-0.986 1.511-1.531 3.255-1.633 5.233v0c-0.018 0.346 0.044 1.01 0.187 1.992 0.136 0.975 0.268 1.589 0.395 1.843v0c0.094 0.245 0.346 0.595 0.757 1.051 0.41 0.455 0.926 0.866 1.548 1.232 0.629 0.36 1.29 0.558 1.982 0.593v0c1.558 0.081 2.822-0.227 3.793-0.925 0.977-0.69 1.774-1.647 2.392-2.87zM88.388-8.088c0.071 0.339 0.182 1.29 0.332 2.853v0c0.404 3.812 1.009 7.639 1.814 11.482v0c0.704 3.36 1.294 5.914 1.769 7.66 0.474 1.74 1.011 3.034 1.611 3.882 0.608 0.853 1.336 1.191 2.184 1.013v0c1.631-0.342 2.56 0.029 2.787 1.112v0c0.149 0.711-0.083 1.39-0.697 2.037-0.609 0.638-1.337 1.047-2.185 1.224v0c-1.018 0.213-2.02 0.175-3.008-0.115-0.979-0.285-1.827-0.867-2.542-1.746v0c-0.491 1.2-1.343 2.253-2.556 3.161-1.211 0.915-2.444 1.503-3.696 1.766v0c-1.938 0.406-3.739 0.358-5.404-0.144-1.665-0.502-3.053-1.373-4.165-2.611-1.111-1.238-1.845-2.709-2.202-4.412v0c-0.341-1.625-0.474-3.235-0.399-4.831 0.074-1.596 0.347-2.957 0.819-4.085v0c0.651-1.478 1.665-2.764 3.044-3.857 1.386-1.088 2.827-1.788 4.321-2.101v0c0.92-0.193 1.825-0.195 2.716-0.007 0.891 0.188 1.693 0.473 2.406 0.854v0c-0.477-2.277-0.792-3.699-0.945-4.266v0l-0.226-1.077c-0.662-3.158-0.941-5.511-0.835-7.059v0c0.074-1.5 0.825-2.4 2.254-2.699v0c0.776-0.163 1.389-0.114 1.839 0.145 0.443 0.261 0.764 0.868 0.964 1.821zM77.46 17.917c0.328 1.566 1.038 2.728 2.131 3.487 1.1 0.764 2.28 1.014 3.539 0.75v0c1.801-0.377 3.018-1.218 3.65-2.522 0.626-1.303 0.754-2.835 0.385-4.597v0l-1.107-5.04c-1.63-1.177-3.156-1.617-4.578-1.319v0c-0.985 0.207-1.861 0.645-2.626 1.317-0.764 0.678-1.297 1.563-1.599 2.654v0c-0.34 1.236-0.272 2.993 0.205 5.27zM114.947 27.306c-1.187 0.577-2.272 0.862-3.253 0.856-0.987-0.003-1.808-0.182-2.462-0.539-0.655-0.356-1.081-0.739-1.279-1.146v0c-0.259-0.534-0.274-1.038-0.045-1.512 0.232-0.483 0.612-0.853 1.14-1.109v0c0.312-0.151 0.655-0.2 1.03-0.145 0.372 0.049 0.58 0.081 0.625 0.097v0c0.298 0.048 0.581 0.074 0.849 0.077 0.277 0.006 0.539-0.05 0.785-0.17v0c0.69-0.335 1.034-1.061 1.031-2.179-0.008-1.115-0.286-2.796-0.835-5.042v0c-2.402-1.376-4.572-2.868-6.509-4.477v0l-2.285-1.958c-0.336-0.296-1.238-1.063-2.706-2.299-1.467-1.237-2.842-2.296-4.122-3.179v0c-0.857-0.666-1.361-1.155-1.513-1.467v0c-0.379-0.78-0.385-1.488-0.019-2.125 0.362-0.643 0.9-1.137 1.614-1.484v0c0.504-0.245 0.937-0.329 1.299-0.253 0.363 0.076 0.845 0.298 1.446 0.666v0c1.631 1.054 3.705 2.822 6.222 5.305v0c1.462 1.409 2.596 2.471 3.402 3.184 0.803 0.707 1.691 1.384 2.664 2.03v0c-0.063-1.474-0.399-3.875-1.007-7.203v0c-0.32-1.927-0.563-3.48-0.728-4.66-0.168-1.171-0.252-2.275-0.252-3.313v0c0.008-0.701 0.139-1.324 0.393-1.869 0.254-0.546 0.648-0.948 1.181-1.207v0c0.528-0.256 1.192-0.338 1.993-0.245 0.795 0.096 1.321 0.407 1.577 0.935v0c0.151 0.312 0.225 0.739 0.222 1.282v0c0.148 3.404 0.362 6.568 0.641 9.493 0.288 2.928 0.73 6.082 1.325 9.462v0c0.306 1.897 0.548 3.724 0.728 5.482 0.182 1.764 0.247 2.874 0.193 3.33v0c-0.202 1.172-0.551 2.239-1.048 3.199-0.5 0.954-1.266 1.682-2.297 2.183z" opacity="1" transform="matrix(1,0,0,1,0,0)" fill="#b71a1a" class="wordmark-text-0" data-fill-palette-color="primary" id="text-0"></path></svg></g></svg></g></svg></g></svg></g><g transform="matrix(1,0,0,1,75.54432,0)"><svg viewBox="0 0 244.43135999999998 117.80643742433678" height="117.80643742433678" width="244.43135999999998"><g><svg xmlns="http://www.w3.org/2000/svg" xmlns:xlink="http://www.w3.org/1999/xlink" version="1.1" x="0" y="0" viewBox="1.1209999999999996 24.508 96.34800000000001 46.43600000000001" enable-background="new 0 0 100 100" xml:space="preserve" height="117.80643742433678" width="244.43135999999998" class="icon-icon-0" data-fill-palette-color="accent" id="icon-0"><g fill="#ffffff" data-fill-palette-color="accent"><path d="M85.578 63.834c0.812 0 1.475-0.66 1.475-1.475V43.014 32.258c0-0.816-0.663-1.474-1.475-1.474h-7.785v15.774 17.273h7.785V63.834z" fill="#b71a1a" data-fill-palette-color="accent"></path><path d="M11.538 32.258v30.103c0 0.812 0.662 1.475 1.475 1.475h63.864V46.24 30.784H32.503 13.012C12.198 30.784 11.538 31.446 11.538 32.258z" fill="#b71a1a" data-fill-palette-color="accent"></path><path d="M97.468 31.584c-0.061 0.002-0.121 0.004-0.183 0.004-1.299 0-2.51-0.367-3.54-0.997-1.798-1.103-2.728-2.333-3.785-4.142l-0.133-0.265-0.816-1.411-75.225-0.265-0.132 0.033 0.031 0.011-5.103-0.043 0.044 0.794-0.065 0.602c-0.534 3.224-3.328 5.684-6.704 5.684-0.248 0-0.493-0.015-0.734-0.039v3.329l1.542 1.539-1.542 1.54v0.777l1.542 1.542-1.542 1.54v1.146l1.542 1.544-1.542 1.541v0.757l0.295 0.318 1.247 1.245L2.62 48.408l0.242 0.26-1.741 1.63v0.506l1.61 1.725-1.61 1.508v1.147l1.466 1.57-1.466 1.372v1.056l1.335 1.433-1.335 1.25v2.128c0.241-0.023 0.486-0.038 0.734-0.038 3.758 0 6.804 3.045 6.804 6.802 0 0.062-0.003 0.122-0.004 0.187h81.831c-0.001-0.064-0.005-0.124-0.005-0.187 0-3.757 3.047-6.802 6.805-6.802 0.062 0 0.122 0.002 0.183 0.004v-2.295l-1.189-1.275 1.189-1.114v-1.611l-1.06-1.132 1.06-0.991v-2.256l-0.917-0.982 0.917-0.857v-2.086l-0.988-0.99 0.988-0.991v-1.88l-0.988-0.991 0.988-0.991v-2.249l-0.988-0.993 0.988-0.99v-1.877l-0.988-0.991 0.988-0.989V31.584zM87.832 43.079v19.283c0 1.245-1.011 2.256-2.254 2.256H13.012c-1.245 0-2.255-1.011-2.255-2.256V32.258c0-1.245 1.01-2.258 2.255-2.258h17.243 55.323c1.243 0 2.254 1.013 2.254 2.258V43.079z" fill="red" data-fill-palette-color="accent"></path></g></svg></g></svg></g><g></g></svg></g><defs></defs></svg><rect width="395.52" height="279.7022469131665" fill="red" stroke="none" visibility="hidden"></rect></g></svg></g></svg>